<svg width="35" height="40" viewBox="0 0 35 40" fill="none" xmlns="http://www.w3.org/2000/svg">
<path d="M35 32.381V34.2857H0V32.381L3.88889 28.5714V17.1429C3.88889 11.2381 7.83611 6.03809 13.6111 4.3619C13.6111 4.17143 13.6111 4 13.6111 3.80952C13.6111 2.79918 14.0208 1.83021 14.7501 1.11578C15.4795 0.401359 16.4686 0 17.5 0C18.5314 0 19.5206 0.401359 20.2499 1.11578C20.9792 1.83021 21.3889 2.79918 21.3889 3.80952C21.3889 4 21.3889 4.17143 21.3889 4.3619C27.1639 6.03809 31.1111 11.2381 31.1111 17.1429V28.5714L35 32.381ZM21.3889 36.1905C21.3889 37.2008 20.9792 38.1698 20.2499 38.8842C19.5206 39.5986 18.5314 40 17.5 40C16.4686 40 15.4795 39.5986 14.7501 38.8842C14.0208 38.1698 13.6111 37.2008 13.6111 36.1905" fill="#48D0B7"/>
</svg>
