<svg width="20" height="40" viewBox="0 0 20 40" fill="none" xmlns="http://www.w3.org/2000/svg">
<path d="M0 26.6667H4C4 29.0667 6.74 31.1111 10 31.1111C13.26 31.1111 16 29.0667 16 26.6667C16 24.2222 13.92 23.3333 9.52 22.1556C5.28 20.9778 0 19.5111 0 13.3333C0 9.35556 2.94 5.97778 7 4.84444V0H13V4.84444C17.06 5.97778 20 9.35556 20 13.3333H16C16 10.9333 13.26 8.88889 10 8.88889C6.74 8.88889 4 10.9333 4 13.3333C4 15.7778 6.08 16.6667 10.48 17.8444C14.72 19.0222 20 20.4889 20 26.6667C20 30.6444 17.06 34.0222 13 35.1556V40H7V35.1556C2.94 34.0222 0 30.6444 0 26.6667Z" fill="#48D0B7"/>
</svg>
