<svg width="85" height="25" viewBox="0 0 85 25" fill="none" xmlns="http://www.w3.org/2000/svg">
<path d="M10.7344 7.65234C11.0234 7.30078 11.4688 6.96094 12.0703 6.63281C12.6797 6.29688 13.5352 6.12891 14.6367 6.12891C16.1992 6.12891 17.3281 6.53125 18.0234 7.33594C18.7188 8.14062 19.0664 9.34766 19.0664 10.957V17.8008C19.0664 18.0352 19.0156 18.1992 18.9141 18.293C18.8203 18.3789 18.6562 18.4219 18.4219 18.4219H16.0078C15.7734 18.4219 15.6055 18.3789 15.5039 18.293C15.4102 18.1992 15.3633 18.0352 15.3633 17.8008V11.5664C15.3633 10.6914 15.2031 10.0664 14.8828 9.69141C14.5625 9.30859 14.082 9.11719 13.4414 9.11719C12.8711 9.11719 12.418 9.24609 12.082 9.50391C11.7539 9.75391 11.5195 10.0938 11.3789 10.5234V17.8008C11.3789 18.0352 11.3281 18.1992 11.2266 18.293C11.1328 18.3789 10.9688 18.4219 10.7344 18.4219H8.32031C8.08594 18.4219 7.91797 18.3789 7.81641 18.293C7.72266 18.1992 7.67578 18.0352 7.67578 17.8008V11.5664C7.67578 10.7148 7.5 10.0938 7.14844 9.70312C6.79688 9.3125 6.33594 9.11719 5.76562 9.11719C5.22656 9.11719 4.79297 9.25 4.46484 9.51562C4.13672 9.78125 3.88281 10.1172 3.70312 10.5234V17.8008C3.70312 18.0352 3.65234 18.1992 3.55078 18.293C3.45703 18.3789 3.29297 18.4219 3.05859 18.4219H0.644531C0.410156 18.4219 0.242188 18.3789 0.140625 18.293C0.046875 18.1992 0 18.0352 0 17.8008V7.98047C0 7.79297 0.0390625 7.64844 0.117188 7.54688C0.28125 7.32812 0.476562 7.10547 0.703125 6.87891C0.9375 6.65234 1.22266 6.41016 1.55859 6.15234C1.66016 6.07422 1.75781 6.03516 1.85156 6.03516C1.9375 6.03516 2.03516 6.07422 2.14453 6.15234C2.47266 6.41016 2.75391 6.65625 2.98828 6.89062C3.22266 7.125 3.42969 7.36719 3.60938 7.61719H3.66797C3.93359 7.28125 4.34766 6.94922 4.91016 6.62109C5.47266 6.29297 6.27734 6.12891 7.32422 6.12891C8.32422 6.12891 9.06641 6.28125 9.55078 6.58594C10.0352 6.88281 10.4297 7.23828 10.7344 7.65234ZM22.6172 24.0586C22.3281 24.0586 22.1094 24.0273 21.9609 23.9648C21.8125 23.9102 21.6875 23.8398 21.5859 23.7539C21.3828 23.5586 21.1641 23.2852 20.9297 22.9336C20.875 22.8477 20.8164 22.7461 20.7539 22.6289C20.6914 22.5195 20.6602 22.4258 20.6602 22.3477C20.6602 22.2617 20.6797 22.1836 20.7188 22.1133C20.7578 22.043 20.8047 21.9766 20.8594 21.9141C20.9844 21.75 21.1367 21.5781 21.3164 21.3984C21.4961 21.2266 21.6484 21.0898 21.7734 20.9883C21.8594 20.918 21.9297 20.8711 21.9844 20.8477C22.0391 20.832 22.0859 20.8242 22.125 20.8242C22.1641 20.8242 22.2227 20.832 22.3008 20.8477C22.3789 20.8633 22.4961 20.8711 22.6523 20.8711C23.1914 20.8711 23.7539 20.6953 24.3398 20.3438C24.9258 19.9922 25.5039 19.332 26.0742 18.3633C25.4805 17.8164 24.8945 17.1328 24.3164 16.3125C23.7461 15.4844 23.2305 14.5898 22.7695 13.6289C22.3086 12.6602 21.9375 11.6953 21.6562 10.7344C21.3828 9.77344 21.2461 8.88672 21.2461 8.07422C21.2461 7.90234 21.2891 7.76562 21.375 7.66406C21.7344 7.21875 22.2461 6.75391 22.9102 6.26953C23.0273 6.19141 23.1328 6.15234 23.2266 6.15234C23.3281 6.15234 23.4336 6.19141 23.543 6.26953C23.9023 6.52734 24.2031 6.76953 24.4453 6.99609C24.6953 7.22266 24.9062 7.44531 25.0781 7.66406C25.1641 7.76562 25.207 7.91016 25.207 8.09766V8.05078C25.207 8.66797 25.2812 9.32031 25.4297 10.0078C25.5781 10.6953 25.7812 11.3672 26.0391 12.0234C26.2969 12.6719 26.5859 13.2617 26.9062 13.793C27.2266 14.3164 27.5586 14.7344 27.9023 15.0469H27.9609C28.1172 14.75 28.2891 14.3242 28.4766 13.7695C28.6719 13.207 28.8555 12.5859 29.0273 11.9062C29.1992 11.2188 29.3398 10.5391 29.4492 9.86719C29.5586 9.1875 29.6133 8.58594 29.6133 8.0625V8.09766C29.6133 7.91016 29.6523 7.76562 29.7305 7.66406C29.9102 7.44531 30.1211 7.22266 30.3633 6.99609C30.6055 6.76953 30.8984 6.52734 31.2422 6.26953C31.3516 6.19141 31.4531 6.15234 31.5469 6.15234C31.6562 6.15234 31.7578 6.19141 31.8516 6.26953C32.2031 6.52734 32.5 6.76953 32.7422 6.99609C32.9844 7.22266 33.1914 7.44531 33.3633 7.66406C33.4414 7.76562 33.4805 7.90625 33.4805 8.08594C33.4727 8.79688 33.3359 9.72656 33.0703 10.875C32.8047 12.0156 32.418 13.2539 31.9102 14.5898C31.4023 15.9258 30.7852 17.2344 30.0586 18.5156C28.9727 20.4453 27.8008 21.8516 26.543 22.7344C25.2852 23.6172 23.9766 24.0586 22.6172 24.0586ZM33.4805 8.0625V8.09766V8.08594C33.4805 8.07812 33.4805 8.07031 33.4805 8.0625ZM21.2461 8.0625V8.07422V8.09766V8.0625ZM40.957 18.7148C38.3477 18.7148 37.043 17.3594 37.043 14.6484V9.15234H35.7188C35.4844 9.15234 35.3203 9.10547 35.2266 9.01172C35.1406 8.91016 35.0977 8.74219 35.0977 8.50781V7.06641C35.0977 6.83203 35.1406 6.66797 35.2266 6.57422C35.3203 6.47266 35.4844 6.42188 35.7188 6.42188H37.043V4.53516C37.043 4.34766 37.082 4.20312 37.1602 4.10156C37.4883 3.67188 37.9688 3.20703 38.6016 2.70703C38.7109 2.62891 38.8086 2.58984 38.8945 2.58984C38.9883 2.58984 39.082 2.62891 39.1758 2.70703C39.5117 2.96484 39.793 3.20703 40.0195 3.43359C40.2539 3.66016 40.4531 3.88281 40.6172 4.10156C40.6953 4.20312 40.7344 4.34766 40.7344 4.53516V6.42188H42.8086C43.043 6.42188 43.2031 6.47266 43.2891 6.57422C43.3828 6.66797 43.4297 6.83203 43.4297 7.06641V8.50781C43.4297 8.74219 43.3828 8.91016 43.2891 9.01172C43.2031 9.10547 43.043 9.15234 42.8086 9.15234H40.7344V14.0039C40.7344 15.2539 41.1875 15.8789 42.0938 15.8789C42.2344 15.8789 42.3633 15.8672 42.4805 15.8438C42.5977 15.8125 42.6992 15.7812 42.7852 15.75C42.9492 15.6875 43.0625 15.6641 43.125 15.6797C43.1953 15.6953 43.2578 15.7812 43.3125 15.9375L43.9922 17.7539C44.0625 17.9492 44.0156 18.0898 43.8516 18.1758C43.7344 18.2305 43.4492 18.332 42.9961 18.4805C42.5508 18.6367 41.8711 18.7148 40.957 18.7148ZM49.6641 17.8008C49.6641 18.0352 49.6133 18.1992 49.5117 18.293C49.418 18.3789 49.2539 18.4219 49.0195 18.4219H46.6055C46.3711 18.4219 46.2031 18.3789 46.1016 18.293C46.0078 18.1992 45.9609 18.0352 45.9609 17.8008V1.94531C45.9609 1.75781 46 1.61328 46.0781 1.51172C46.4062 1.08203 46.8867 0.617188 47.5195 0.117188C47.6289 0.0390625 47.7266 0 47.8125 0C47.9141 0 48.0117 0.0390625 48.1055 0.117188C48.4414 0.375 48.7227 0.617188 48.9492 0.84375C49.1836 1.07031 49.3828 1.29297 49.5469 1.51172C49.625 1.61328 49.6641 1.75781 49.6641 1.94531V7.62891H49.7109C49.8828 7.40234 50.1055 7.17578 50.3789 6.94922C50.6523 6.71484 51.0156 6.51953 51.4688 6.36328C51.9297 6.20703 52.5156 6.12891 53.2266 6.12891C53.9453 6.12891 54.6367 6.27734 55.3008 6.57422C55.9648 6.87109 56.5078 7.37109 56.9297 8.07422C57.3516 8.77734 57.5625 9.73828 57.5625 10.957V17.8008C57.5625 18.0352 57.5117 18.1992 57.4102 18.293C57.3164 18.3789 57.1523 18.4219 56.918 18.4219H54.5039C54.2695 18.4219 54.1016 18.3789 54 18.293C53.9062 18.1992 53.8594 18.0352 53.8594 17.8008V11.6016C53.8594 10.7344 53.6797 10.1055 53.3203 9.71484C52.9609 9.31641 52.4727 9.11719 51.8555 9.11719C51.2461 9.11719 50.7734 9.25 50.4375 9.51562C50.1016 9.78125 49.8438 10.1172 49.6641 10.5234V17.8008ZM66.4805 18.7148C64.5117 18.7148 62.9531 18.1914 61.8047 17.1445C60.6562 16.0977 60.082 14.5391 60.082 12.4688C60.082 10.3438 60.6758 8.75781 61.8633 7.71094C63.0586 6.65625 64.6523 6.12891 66.6445 6.12891C68.5664 6.12891 70.1055 6.64844 71.2617 7.6875C72.418 8.71875 72.9961 10.2422 72.9961 12.2578C72.9961 14.3594 72.418 15.9609 71.2617 17.0625C70.1055 18.1641 68.5117 18.7148 66.4805 18.7148ZM66.5977 15.8789C67.457 15.8789 68.1055 15.6133 68.543 15.082C68.9805 14.543 69.1992 13.625 69.1992 12.3281C69.1992 11.0938 68.9766 10.2266 68.5312 9.72656C68.0938 9.21875 67.4414 8.96484 66.5742 8.96484C65.7383 8.96484 65.0781 9.23828 64.5938 9.78516C64.1172 10.3242 63.8789 11.2031 63.8789 12.4219C63.8789 13.6953 64.1055 14.5898 64.5586 15.1055C65.0195 15.6211 65.6992 15.8789 66.5977 15.8789ZM78.8555 18.7148C78.0195 18.7148 77.3242 18.6445 76.7695 18.5039C76.2227 18.3633 75.7812 18.1953 75.4453 18C75.1172 17.7969 74.8594 17.6133 74.6719 17.4492C74.5312 17.3164 74.5156 17.168 74.625 17.0039L75.8203 15.2344C75.9922 14.9844 76.1875 14.9688 76.4062 15.1875C76.6328 15.4062 76.9375 15.6211 77.3203 15.832C77.7109 16.0352 78.1953 16.1367 78.7734 16.1367C79.2891 16.1367 79.7109 16.0508 80.0391 15.8789C80.375 15.6992 80.543 15.4414 80.543 15.1055C80.543 14.8711 80.4688 14.6797 80.3203 14.5312C80.1719 14.3828 79.9102 14.2305 79.5352 14.0742C79.1602 13.918 78.6367 13.7188 77.9648 13.4766C76.9727 13.1172 76.2227 12.6836 75.7148 12.1758C75.207 11.668 74.9531 10.9258 74.9531 9.94922C74.9531 9.05078 75.1992 8.32031 75.6914 7.75781C76.1914 7.19531 76.8281 6.78516 77.6016 6.52734C78.3828 6.26172 79.1953 6.12891 80.0391 6.12891C81.1094 6.12891 81.8594 6.23047 82.2891 6.43359C82.7266 6.62891 83.0078 6.78125 83.1328 6.89062C83.25 6.99219 83.332 7.10938 83.3789 7.24219C83.4805 7.54688 83.5586 7.94922 83.6133 8.44922C83.6445 8.73828 83.5703 8.92969 83.3906 9.02344C83.2969 9.07812 83.1484 9.13672 82.9453 9.19922C82.7422 9.26172 82.5391 9.31641 82.3359 9.36328C82.1328 9.41016 81.9805 9.43359 81.8789 9.43359C81.8477 9.43359 81.8125 9.42578 81.7734 9.41016C81.7422 9.38672 81.6836 9.33594 81.5977 9.25781C81.4961 9.15625 81.3203 9.03906 81.0703 8.90625C80.8281 8.77344 80.4922 8.70703 80.0625 8.70703C79.6406 8.70703 79.2852 8.77734 78.9961 8.91797C78.7148 9.05078 78.5742 9.28906 78.5742 9.63281C78.5742 10.0078 78.7539 10.2891 79.1133 10.4766C79.4805 10.6641 80.082 10.9062 80.918 11.2031C81.5742 11.4297 82.1445 11.6797 82.6289 11.9531C83.1211 12.2188 83.5 12.5703 83.7656 13.0078C84.0312 13.4375 84.1641 14.0195 84.1641 14.7539C84.1641 15.707 83.9023 16.4766 83.3789 17.0625C82.8633 17.6406 82.1992 18.0625 81.3867 18.3281C80.582 18.5859 79.7383 18.7148 78.8555 18.7148Z" fill="white"/>
</svg>
