<svg width="113" height="33" viewBox="0 0 113 33" fill="none" xmlns="http://www.w3.org/2000/svg">
<path d="M14.3125 10.2031C14.6979 9.73438 15.2917 9.28125 16.0938 8.84375C16.9062 8.39583 18.0469 8.17188 19.5156 8.17188C21.599 8.17188 23.1042 8.70833 24.0312 9.78125C24.9583 10.8542 25.4219 12.4635 25.4219 14.6094V23.7344C25.4219 24.0469 25.3542 24.2656 25.2188 24.3906C25.0938 24.5052 24.875 24.5625 24.5625 24.5625H21.3438C21.0312 24.5625 20.8073 24.5052 20.6719 24.3906C20.5469 24.2656 20.4844 24.0469 20.4844 23.7344V15.4219C20.4844 14.2552 20.2708 13.4219 19.8438 12.9219C19.4167 12.4115 18.776 12.1562 17.9219 12.1562C17.1615 12.1562 16.5573 12.3281 16.1094 12.6719C15.6719 13.0052 15.3594 13.4583 15.1719 14.0312V23.7344C15.1719 24.0469 15.1042 24.2656 14.9688 24.3906C14.8438 24.5052 14.625 24.5625 14.3125 24.5625H11.0938C10.7812 24.5625 10.5573 24.5052 10.4219 24.3906C10.2969 24.2656 10.2344 24.0469 10.2344 23.7344V15.4219C10.2344 14.2865 10 13.4583 9.53125 12.9375C9.0625 12.4167 8.44792 12.1562 7.6875 12.1562C6.96875 12.1562 6.39062 12.3333 5.95312 12.6875C5.51562 13.0417 5.17708 13.4896 4.9375 14.0312V23.7344C4.9375 24.0469 4.86979 24.2656 4.73438 24.3906C4.60938 24.5052 4.39062 24.5625 4.07812 24.5625H0.859375C0.546875 24.5625 0.322917 24.5052 0.1875 24.3906C0.0625 24.2656 0 24.0469 0 23.7344V10.6406C0 10.3906 0.0520833 10.1979 0.15625 10.0625C0.375 9.77083 0.635417 9.47396 0.9375 9.17188C1.25 8.86979 1.63021 8.54688 2.07812 8.20312C2.21354 8.09896 2.34375 8.04688 2.46875 8.04688C2.58333 8.04688 2.71354 8.09896 2.85938 8.20312C3.29688 8.54688 3.67188 8.875 3.98438 9.1875C4.29688 9.5 4.57292 9.82292 4.8125 10.1562H4.89062C5.24479 9.70833 5.79688 9.26562 6.54688 8.82812C7.29688 8.39062 8.36979 8.17188 9.76562 8.17188C11.099 8.17188 12.0885 8.375 12.7344 8.78125C13.3802 9.17708 13.9062 9.65104 14.3125 10.2031ZM30.1562 32.0781C29.7708 32.0781 29.4792 32.0365 29.2812 31.9531C29.0833 31.8802 28.9167 31.7865 28.7812 31.6719C28.5104 31.4115 28.2188 31.0469 27.9062 30.5781C27.8333 30.4635 27.7552 30.3281 27.6719 30.1719C27.5885 30.026 27.5469 29.901 27.5469 29.7969C27.5469 29.6823 27.5729 29.5781 27.625 29.4844C27.6771 29.3906 27.7396 29.3021 27.8125 29.2188C27.9792 29 28.1823 28.7708 28.4219 28.5312C28.6615 28.3021 28.8646 28.1198 29.0312 27.9844C29.1458 27.8906 29.2396 27.8281 29.3125 27.7969C29.3854 27.776 29.4479 27.7656 29.5 27.7656C29.5521 27.7656 29.6302 27.776 29.7344 27.7969C29.8385 27.8177 29.9948 27.8281 30.2031 27.8281C30.9219 27.8281 31.6719 27.5938 32.4531 27.125C33.2344 26.6562 34.0052 25.776 34.7656 24.4844C33.974 23.7552 33.1927 22.8438 32.4219 21.75C31.6615 20.6458 30.974 19.4531 30.3594 18.1719C29.7448 16.8802 29.25 15.5938 28.875 14.3125C28.5104 13.0312 28.3281 11.849 28.3281 10.7656C28.3281 10.5365 28.3854 10.3542 28.5 10.2188C28.9792 9.625 29.6615 9.00521 30.5469 8.35938C30.7031 8.25521 30.8438 8.20312 30.9688 8.20312C31.1042 8.20312 31.2448 8.25521 31.3906 8.35938C31.8698 8.70312 32.2708 9.02604 32.5938 9.32812C32.9271 9.63021 33.2083 9.92708 33.4375 10.2188C33.5521 10.3542 33.6094 10.5469 33.6094 10.7969V10.7344C33.6094 11.5573 33.7083 12.4271 33.9062 13.3438C34.1042 14.2604 34.375 15.1562 34.7188 16.0312C35.0625 16.8958 35.4479 17.6823 35.875 18.3906C36.3021 19.0885 36.7448 19.6458 37.2031 20.0625H37.2812C37.4896 19.6667 37.7188 19.099 37.9688 18.3594C38.2292 17.6094 38.474 16.7812 38.7031 15.875C38.9323 14.9583 39.1198 14.0521 39.2656 13.1562C39.4115 12.25 39.4844 11.4479 39.4844 10.75V10.7969C39.4844 10.5469 39.5365 10.3542 39.6406 10.2188C39.8802 9.92708 40.1615 9.63021 40.4844 9.32812C40.8073 9.02604 41.1979 8.70312 41.6562 8.35938C41.8021 8.25521 41.9375 8.20312 42.0625 8.20312C42.2083 8.20312 42.3438 8.25521 42.4688 8.35938C42.9375 8.70312 43.3333 9.02604 43.6562 9.32812C43.9792 9.63021 44.2552 9.92708 44.4844 10.2188C44.5885 10.3542 44.6406 10.5417 44.6406 10.7812C44.6302 11.7292 44.4479 12.9688 44.0938 14.5C43.7396 16.0208 43.224 17.6719 42.5469 19.4531C41.8698 21.2344 41.0469 22.9792 40.0781 24.6875C38.6302 27.2604 37.0677 29.1354 35.3906 30.3125C33.7135 31.4896 31.9688 32.0781 30.1562 32.0781ZM44.6406 10.75V10.7969V10.7812C44.6406 10.7708 44.6406 10.7604 44.6406 10.75ZM28.3281 10.75V10.7656V10.7969V10.75ZM54.6094 24.9531C51.1302 24.9531 49.3906 23.1458 49.3906 19.5312V12.2031H47.625C47.3125 12.2031 47.0938 12.1406 46.9688 12.0156C46.8542 11.8802 46.7969 11.6562 46.7969 11.3438V9.42188C46.7969 9.10938 46.8542 8.89062 46.9688 8.76562C47.0938 8.63021 47.3125 8.5625 47.625 8.5625H49.3906V6.04688C49.3906 5.79688 49.4427 5.60417 49.5469 5.46875C49.9844 4.89583 50.625 4.27604 51.4688 3.60938C51.6146 3.50521 51.7448 3.45312 51.8594 3.45312C51.9844 3.45312 52.1094 3.50521 52.2344 3.60938C52.6823 3.95312 53.0573 4.27604 53.3594 4.57812C53.6719 4.88021 53.9375 5.17708 54.1562 5.46875C54.2604 5.60417 54.3125 5.79688 54.3125 6.04688V8.5625H57.0781C57.3906 8.5625 57.6042 8.63021 57.7188 8.76562C57.8438 8.89062 57.9062 9.10938 57.9062 9.42188V11.3438C57.9062 11.6562 57.8438 11.8802 57.7188 12.0156C57.6042 12.1406 57.3906 12.2031 57.0781 12.2031H54.3125V18.6719C54.3125 20.3385 54.9167 21.1719 56.125 21.1719C56.3125 21.1719 56.4844 21.1562 56.6406 21.125C56.7969 21.0833 56.9323 21.0417 57.0469 21C57.2656 20.9167 57.4167 20.8854 57.5 20.9062C57.5938 20.9271 57.6771 21.0417 57.75 21.25L58.6562 23.6719C58.75 23.9323 58.6875 24.1198 58.4688 24.2344C58.3125 24.3073 57.9323 24.4427 57.3281 24.6406C56.7344 24.849 55.8281 24.9531 54.6094 24.9531ZM66.2188 23.7344C66.2188 24.0469 66.151 24.2656 66.0156 24.3906C65.8906 24.5052 65.6719 24.5625 65.3594 24.5625H62.1406C61.8281 24.5625 61.6042 24.5052 61.4688 24.3906C61.3438 24.2656 61.2812 24.0469 61.2812 23.7344V2.59375C61.2812 2.34375 61.3333 2.15104 61.4375 2.01562C61.875 1.44271 62.5156 0.822917 63.3594 0.15625C63.5052 0.0520833 63.6354 0 63.75 0C63.8854 0 64.0156 0.0520833 64.1406 0.15625C64.5885 0.5 64.9635 0.822917 65.2656 1.125C65.5781 1.42708 65.8438 1.72396 66.0625 2.01562C66.1667 2.15104 66.2188 2.34375 66.2188 2.59375V10.1719H66.2812C66.5104 9.86979 66.8073 9.56771 67.1719 9.26562C67.5365 8.95312 68.0208 8.69271 68.625 8.48438C69.2396 8.27604 70.0208 8.17188 70.9688 8.17188C71.9271 8.17188 72.849 8.36979 73.7344 8.76562C74.6198 9.16146 75.3438 9.82812 75.9062 10.7656C76.4688 11.7031 76.75 12.9844 76.75 14.6094V23.7344C76.75 24.0469 76.6823 24.2656 76.5469 24.3906C76.4219 24.5052 76.2031 24.5625 75.8906 24.5625H72.6719C72.3594 24.5625 72.1354 24.5052 72 24.3906C71.875 24.2656 71.8125 24.0469 71.8125 23.7344V15.4688C71.8125 14.3125 71.5729 13.474 71.0938 12.9531C70.6146 12.4219 69.9635 12.1562 69.1406 12.1562C68.3281 12.1562 67.6979 12.3333 67.25 12.6875C66.8021 13.0417 66.4583 13.4896 66.2188 14.0312V23.7344ZM88.6406 24.9531C86.0156 24.9531 83.9375 24.2552 82.4062 22.8594C80.875 21.4635 80.1094 19.3854 80.1094 16.625C80.1094 13.7917 80.901 11.6771 82.4844 10.2812C84.0781 8.875 86.2031 8.17188 88.8594 8.17188C91.4219 8.17188 93.474 8.86458 95.0156 10.25C96.5573 11.625 97.3281 13.6562 97.3281 16.3438C97.3281 19.1458 96.5573 21.2812 95.0156 22.75C93.474 24.2188 91.349 24.9531 88.6406 24.9531ZM88.7969 21.1719C89.9427 21.1719 90.8073 20.8177 91.3906 20.1094C91.974 19.3906 92.2656 18.1667 92.2656 16.4375C92.2656 14.7917 91.9688 13.6354 91.375 12.9688C90.7917 12.2917 89.9219 11.9531 88.7656 11.9531C87.651 11.9531 86.7708 12.3177 86.125 13.0469C85.4896 13.7656 85.1719 14.9375 85.1719 16.5625C85.1719 18.2604 85.474 19.4531 86.0781 20.1406C86.6927 20.8281 87.599 21.1719 88.7969 21.1719ZM105.141 24.9531C104.026 24.9531 103.099 24.8594 102.359 24.6719C101.63 24.4844 101.042 24.2604 100.594 24C100.156 23.7292 99.8125 23.4844 99.5625 23.2656C99.375 23.0885 99.3542 22.8906 99.5 22.6719L101.094 20.3125C101.323 19.9792 101.583 19.9583 101.875 20.25C102.177 20.5417 102.583 20.8281 103.094 21.1094C103.615 21.3802 104.26 21.5156 105.031 21.5156C105.719 21.5156 106.281 21.401 106.719 21.1719C107.167 20.9323 107.391 20.5885 107.391 20.1406C107.391 19.8281 107.292 19.5729 107.094 19.375C106.896 19.1771 106.547 18.974 106.047 18.7656C105.547 18.5573 104.849 18.2917 103.953 17.9688C102.63 17.4896 101.63 16.9115 100.953 16.2344C100.276 15.5573 99.9375 14.5677 99.9375 13.2656C99.9375 12.0677 100.266 11.0938 100.922 10.3438C101.589 9.59375 102.438 9.04688 103.469 8.70312C104.51 8.34896 105.594 8.17188 106.719 8.17188C108.146 8.17188 109.146 8.30729 109.719 8.57812C110.302 8.83854 110.677 9.04167 110.844 9.1875C111 9.32292 111.109 9.47917 111.172 9.65625C111.307 10.0625 111.411 10.599 111.484 11.2656C111.526 11.651 111.427 11.9062 111.188 12.0312C111.062 12.1042 110.865 12.1823 110.594 12.2656C110.323 12.349 110.052 12.4219 109.781 12.4844C109.51 12.5469 109.307 12.5781 109.172 12.5781C109.13 12.5781 109.083 12.5677 109.031 12.5469C108.99 12.5156 108.911 12.4479 108.797 12.3438C108.661 12.2083 108.427 12.0521 108.094 11.875C107.771 11.6979 107.323 11.6094 106.75 11.6094C106.188 11.6094 105.714 11.7031 105.328 11.8906C104.953 12.0677 104.766 12.3854 104.766 12.8438C104.766 13.3438 105.005 13.7188 105.484 13.9688C105.974 14.2188 106.776 14.5417 107.891 14.9375C108.766 15.2396 109.526 15.5729 110.172 15.9375C110.828 16.2917 111.333 16.7604 111.688 17.3438C112.042 17.9167 112.219 18.6927 112.219 19.6719C112.219 20.9427 111.87 21.9688 111.172 22.75C110.484 23.5208 109.599 24.0833 108.516 24.4375C107.443 24.7812 106.318 24.9531 105.141 24.9531Z" fill="#3A3A3A"/>
</svg>
